# xmcd
# 
# Track frame offsets:
#     150
#     2385
#     17878
#     36710
#     54557
#     67648
#     89750
#     115178
#     121932
#     130182
#     144410
#     158165
#     168894
#     196297
#     212031
#     228701
#     260340
#     280639
#     297778
#     319106
# 
# Disc length: 4484
# 
# Revision: 5
# Processed by: cddbd v1.5.2PL0 Copyright (c) Steve Scherf et al.
# Submitted via: BonkEnc v1.0
# 
DISCID=19118214
DTITLE=Τάνια Τσανακλίδου - 2 Χρόνια Μετρό - CD 2
DYEAR=2005
DGENRE=Vocal
TTITLE0=Ôá ëïõóôñÜêéá
TTITLE1=Ìïßñåò
TTITLE2=ÁðïêïéìÞèçêá
TTITLE3=ÂÞìá-ÂÞìá
TTITLE4=Áåñéêü
TTITLE5=ÁõôÞ ç Íý÷ôá ÌÝíåé
TTITLE6=ÁãÜðç ðïõ'ãéíåò Äßêïðï Ìá÷áßñé
TTITLE7=Ôï ãêáñóüíé
TTITLE8=Åóý åßóáé ç áéôßá ðïõ õðïöÝñù
TTITLE9=Ößëå
TTITLE10=ÐáðÜêé
TTITLE11=Áõôïó÷åäéáóìüò ôïõ Ìáíþëç Êáñáíôßíç
TTITLE12=ÃõöôÜêé
TTITLE13=Óôï ¢äåéï ìïõ ÐáêÝôï
TTITLE14=Éóôïñßá ìïõ
TTITLE15=Äå èá ÎáíáãáðÞóù-¼ôé ÁãáðÜù Åãþ Ðåèáßíåé-Áöéëüôéìç-Ôï Ôñåëïêüñéôóï-Ï ÄéáâïëÜêïò
TTITLE16=Ç ÓïõëôÜíá ç Öùöþ-Ïé Èáëáóóéíïß
TTITLE17=Ç Óùôçñßá ôçò Øõ÷Þò
TTITLE18=ÌáìÜ ÃåñíÜù
TTITLE19=Ôï ÐáñÜðïíï ôïõ ÎåíçôåìÝíïõ (Óáí Áðüêëçñïò Ãõñßæù)
EXTD=
EXTT0=
EXTT1=
EXTT2=
EXTT3=
EXTT4=
EXTT5=
EXTT6=
EXTT7=
EXTT8=
EXTT9=
EXTT10=
EXTT11=
EXTT12=
EXTT13=
EXTT14=
EXTT15=
EXTT16=
EXTT17=
EXTT18=
EXTT19=
PLAYORDER=
